<?xml version="1.0" encoding="UTF-8"?>
<svg id="Layer_2" data-name="Layer 2" xmlns="http://www.w3.org/2000/svg" viewBox="0 0 150 150">
  <defs>
    <style>
      .api-cls-1 {
        fill: #5dc9c9;
      }

      .api-cls-2 {
        fill: #f9f3ef;
      }
    </style>
  </defs>
  <g id="Layer_1-2" data-name="Layer 1">
    <rect class="api-cls-2" width="150" height="150" rx="30" ry="30"/>
    <g>
      <g>
        <path class="api-cls-1" d="M49.68,110.25l9.9-21.15h4.35l9.9,21.15h-5.52l-1.83-4.29h-9.45l-1.83,4.29h-5.52ZM61.71,94.86l-2.88,6.87h5.82l-2.88-6.87h-.06Z"/>
        <path class="api-cls-1" d="M75.72,110.25v-21.15h10.17c2.4,0,4.25.61,5.56,1.84,1.31,1.23,1.97,2.93,1.97,5.08s-.66,3.85-1.97,5.09c-1.31,1.23-3.17,1.84-5.56,1.84h-4.65v7.29h-5.52ZM81.24,98.73h3.69c2.16,0,3.24-.9,3.24-2.7s-1.08-2.7-3.24-2.7h-3.69v5.4Z"/>
        <path class="api-cls-1" d="M94.8,110.25v-21.15h5.52v21.15h-5.52Z"/>
      </g>
      <path class="api-cls-1" d="M130.77,87.27c-.12-5.46-2.29-10.65-6.11-14.63-3.31-3.45-7.62-5.73-12.32-6.54-.45-4.07-1.73-7.96-3.83-11.59-4.75-8.21-12.93-13.52-22.45-14.57-9.48-1.05-18.57,2.33-24.96,9.26-1,1.08-1.87,2.22-2.7,3.34-4.8-1.27-9.72-.63-13.82,1.87-4.21,2.57-7.08,6.82-8.07,11.85-6.57,1.52-12.11,5.9-15.07,12.01-3.23,6.67-2.91,14.47.85,20.87,4.27,7.26,11.22,11.1,20.1,11.1h2.77v-7.49h-2.77s0,0,0,0c-6.25,0-10.71-2.42-13.64-7.41-2.53-4.3-2.74-9.33-.57-13.8,2.2-4.54,6.34-7.54,11.37-8.23,3.52-.49,4.04-3.35,4.11-4.21.31-3.58,2.06-6.6,4.82-8.29,1.53-.94,3.29-1.41,5.11-1.41,1.44,0,2.93.29,4.39.89h.04c1.75.73,3.77.18,4.92-1.32.39-.51.77-1.02,1.14-1.52.86-1.15,1.66-2.24,2.52-3.18,4.76-5.16,11.55-7.67,18.63-6.89,7.12.79,13.24,4.75,16.79,10.88,1.85,3.19,2.85,6.64,2.99,10.26.1,2.74,1.89,4.57,4.65,4.78,7.59.58,13.44,6.66,13.62,14.13.18,7.83-5.25,14.2-12.91,15.16-.77.1-5.19.14-5.47.14v7.49c.28,0,5.32-.06,6.4-.2,5.53-.69,10.55-3.38,14.13-7.58,3.57-4.19,5.47-9.58,5.34-15.18Z"/>
    </g>
  </g>
</svg>