<?xml version="1.0" encoding="UTF-8"?>
<svg id="Layer_2" data-name="Layer 2" xmlns="http://www.w3.org/2000/svg" viewBox="0 0 150 150">
  <defs>
    <style>
      .custom-apps-cls--1 {
        fill: #7eaced;
      }

      .custom-apps-cls--2 {
        fill: #f9f3ef;
      }
    </style>
  </defs>
  <g id="Layer_1-2" data-name="Layer 1">
    <rect class="custom-apps-cls--2" width="150" height="150" rx="30" ry="30"/>
    <g>
      <g>
        <path class="custom-apps-cls--1" d="M86.19,110.33l-1.68-1.68c-1.35.81-2.75,1.55-4.2,2.2.92-1.16,1.79-2.43,2.61-3.79l-4.03-4.03c-3.01,5.47-6.87,9.32-11.12,10.67l-.18-21.73h4.99c.28-1.51,1.01-2.95,2.2-4.14l1.28-1.28h-8.51l-.18-21.6h17.22c.48,3.24.75,6.64.75,10.12,0,.75-.02,1.5-.05,2.24l.91-.91c1.25-1.25,2.84-2.03,4.53-2.25-.04-3.17-.26-6.25-.65-9.2h12.15c.69,2.57,1.11,5.24,1.26,7.99.76-2.35,2.61-4.18,4.91-4.97-3.41-21.22-21.84-37.48-44.01-37.48-24.58,0-44.58,20-44.58,44.58s20,44.58,44.58,44.58c9.12,0,17.6-2.76,24.67-7.47-1.06-.39-2.05-1.01-2.88-1.85ZM62.12,86.54h-17.7c-.62-3.65-.96-7.5-.96-11.47,0-3.49.26-6.88.75-10.12h17.73l.18,21.6ZM61.71,36.25l.19,23.27h-16.64c2.93-12.27,9.17-21.43,16.45-23.27ZM48.5,39.29c-4.01,5.07-7.11,12.06-8.86,20.24h-11.18c3.9-9,11.09-16.24,20.04-20.24ZM25.24,75.07c0-3.5.47-6.89,1.33-10.12h12.15c-.43,3.24-.66,6.63-.66,10.12,0,3.98.3,7.82.85,11.47h-11.95c-1.11-3.63-1.72-7.48-1.72-11.47ZM29.07,91.96h10.88c1.79,7.59,4.75,14.1,8.55,18.89-8.5-3.79-15.41-10.51-19.43-18.89ZM45.6,91.96h16.57l.18,22.07c-7.29-1.4-13.61-10.13-16.75-22.07ZM100.34,59.53h-11.18c-1.74-8.17-4.84-15.16-8.86-20.24,8.95,3.99,16.13,11.24,20.04,20.24ZM67.13,36.26c7.27,1.86,13.49,11.02,16.41,23.26h-16.22l-.19-23.26Z"/>
        <path class="custom-apps-cls--1" d="M99.55,86.54h-1.45c-.24.33-.51.66-.81.96l-4.46,4.46h5.16l1.56-5.42Z"/>
      </g>
      <path class="custom-apps-cls--1" d="M132.69,95.33l-11.42,11.42c-.52.52-1.18.79-1.84.79s-1.31-.26-1.84-.79c-1.05-1.05-1.05-2.62,0-3.67l9.58-9.58-9.58-9.58c-1.05-1.05-1.05-2.62,0-3.67,1.05-1.05,2.62-1.05,3.67,0l11.42,11.42c1.05.92,1.05,2.62,0,3.67Z"/>
      <path class="custom-apps-cls--1" d="M93.58,102.95c1.05,1.05,1.05,2.62,0,3.67-.52.52-1.18.79-1.84.79s-1.31-.26-1.84-.79l-11.42-11.42c-1.05-1.05-1.05-2.62,0-3.67l11.42-11.42c1.05-1.05,2.62-1.05,3.67,0,1.05,1.05,1.05,2.62,0,3.67l-9.58,9.58,9.58,9.58Z"/>
      <path class="custom-apps-cls--1" d="M113.53,76.3l-10.76,37.4c-.39,1.18-1.44,1.84-2.49,1.84-.26,0-.52,0-.79-.13-1.44-.39-2.23-1.84-1.84-3.28l10.76-37.4c.39-1.44,1.84-2.23,3.28-1.84,1.31.52,2.23,1.97,1.84,3.41Z"/>
    </g>
  </g>
</svg>