<?xml version="1.0" encoding="UTF-8"?>
<svg id="Layer_2" data-name="Layer 2" xmlns="http://www.w3.org/2000/svg" viewBox="0 0 150 150">
  <defs>
    <style>
      .sdk-cls-1 {
        fill: #f9f3ef;
      }

      .sdk-cls-2 {
        fill: #f48cb4;
      }
    </style>
  </defs>
  <g id="Layer_1-2" data-name="Layer 1">
    <rect class="sdk-cls-1" width="150" height="150" rx="30" ry="30"/>
    <g>
      <g>
        <path class="sdk-cls-2" d="M68.95,118.35l-39.2-17.69c-4.78-2.16-4.78-8.94,0-11.09l39.2-17.69c3.85-1.74,8.25-1.74,12.1,0l39.2,17.69c4.78,2.16,4.78,8.94,0,11.09l-39.2,17.69c-3.85,1.74-8.25,1.74-12.1,0Z"/>
        <path class="sdk-cls-1" d="M75,112.07c-1.02,0-2-.21-2.93-.63l-36.19-16.33,36.19-16.33c.93-.42,1.91-.63,2.93-.63s2,.21,2.93.63l36.19,16.33-36.19,16.33c-.93.42-1.91.63-2.93.63Z"/>
      </g>
      <g>
        <path class="sdk-cls-2" d="M68.95,98.31l-39.2-17.69c-4.78-2.16-4.78-8.94,0-11.09l39.2-17.69c3.85-1.74,8.25-1.74,12.1,0l39.2,17.69c4.78,2.16,4.78,8.94,0,11.09l-39.2,17.69c-3.85,1.74-8.25,1.74-12.1,0Z"/>
        <path class="sdk-cls-1" d="M75,92.03c-1.02,0-2-.21-2.93-.63l-36.19-16.33,36.19-16.33c.93-.42,1.91-.63,2.93-.63s2,.21,2.93.63l36.19,16.33-36.19,16.33c-.93.42-1.91.63-2.93.63Z"/>
      </g>
      <g>
        <path class="sdk-cls-2" d="M68.95,78.27l-39.2-17.69c-4.78-2.16-4.78-8.94,0-11.09l39.2-17.69c3.85-1.74,8.25-1.74,12.1,0l39.2,17.69c4.78,2.16,4.78,8.94,0,11.09l-39.2,17.69c-3.85,1.74-8.25,1.74-12.1,0Z"/>
        <path class="sdk-cls-1" d="M75,71.99c-1.02,0-2-.21-2.93-.63l-36.19-16.33,36.19-16.33c.93-.42,1.91-.63,2.93-.63s2,.21,2.93.63l36.19,16.33-36.19,16.33c-.93.42-1.91.63-2.93.63Z"/>
      </g>
      <g>
        <path class="sdk-cls-2" d="M70.52,62c-.83.37-1.73.68-2.73.92s-1.93.38-2.81.43c-.69-.58-1.05-.88-1.76-1.49.82-.04,1.65-.15,2.48-.34.83-.18,1.56-.42,2.18-.7.66-.3,1.02-.55,1.07-.77.06-.21-.06-.39-.37-.53-.27-.12-.58-.18-.93-.18-.35,0-.82.09-1.4.25-.88.23-1.32.35-2.19.58-2.38.63-4.51.5-6.38-.36-.82-.38-1.34-.78-1.57-1.23-.23-.44-.18-.88.16-1.33.34-.44.96-.86,1.85-1.26.73-.33,1.55-.58,2.44-.77.9-.19,1.75-.28,2.57-.28.63.55.94.83,1.58,1.4-.71.02-1.41.1-2.09.24-.68.14-1.32.34-1.9.6-.56.25-.88.49-.95.73-.07.24.08.44.44.61.26.12.56.18.91.17.35,0,.81-.08,1.39-.23.87-.23,1.31-.34,2.18-.57,2.42-.64,4.53-.54,6.32.29.81.37,1.33.77,1.55,1.21.23.43.17.87-.18,1.32-.34.44-.97.87-1.87,1.28Z"/>
        <path class="sdk-cls-2" d="M75.24,59.69c-4.87-2.14-7.48-3.46-12.36-5.6,1.77-.77,2.65-1.15,4.42-1.92,1.85-.8,3.81-1.19,5.89-1.15,2.08.03,4.09.49,6.04,1.36,1.95.88,2.95,1.78,3.01,2.71.06.93-.82,1.8-2.64,2.63-1.74.79-2.61,1.19-4.36,1.98ZM75.4,57.29c.57-.26.86-.39,1.44-.65,1.05-.47,1.53-.95,1.45-1.44-.08-.49-.72-1.01-1.92-1.55s-2.34-.83-3.44-.87c-1.09-.04-2.16.17-3.21.63-.58.25-.87.38-1.45.63,2.84,1.29,4.3,1.97,7.14,3.26Z"/>
        <path class="sdk-cls-2" d="M85.78,54.92c-4.85-2.13-7.36-3.32-12.21-5.46,1.11-.48,1.67-.72,2.77-1.2,2.08.91,3.12,1.38,5.22,2.32.01,0,.02,0,.03-.01-.45-1.66-.67-2.48-1.11-4.11,1.3-.57,1.95-.86,3.23-1.43.46,1.84.67,2.75,1.11,4.61,4.5.27,6.74.39,11.23.62-1.31.59-1.96.89-3.27,1.48-3.88-.19-5.83-.29-9.73-.52-.01,0-.02,0-.03.01,2.2.98,3.31,1.48,5.49,2.44-1.1.5-1.65.75-2.75,1.24Z"/>
      </g>
    </g>
  </g>
</svg>